HIERARCHY
ROOT Hips
{
	OFFSET 0.000000 0.000000 0.000000
	CHANNELS 6 Xposition Yposition Zposition Zrotation Yrotation Xrotation 
	JOINT LHipJoint
	{
		OFFSET 0.000000 0.000000 0.000000
		CHANNELS 3 Zrotation Yrotation Xrotation
		JOINT LeftUpLeg
		{
			OFFSET 1.363060 -1.794630 0.839290
			CHANNELS 3 Zrotation Yrotation Xrotation
			JOINT LeftLeg
			{
				OFFSET 2.448110 -6.726130 0.000000
				CHANNELS 3 Zrotation Yrotation Xrotation
				JOINT LeftFoot
				{
					OFFSET 2.562200 -7.039590 0.000000
					CHANNELS 3 Zrotation Yrotation Xrotation
					JOINT LeftToeBase
					{
						OFFSET 0.157640 -0.433110 2.322550
						CHANNELS 3 Zrotation Yrotation Xrotation
						End Site
						{
							OFFSET 0.000000 0.000000 0.000000
						}
					}
				}
			}
		}
	}
	JOINT RHipJoint
	{
		OFFSET 0.000000 0.000000 0.000000
		CHANNELS 3 Zrotation Yrotation Xrotation
		JOINT RightUpLeg
		{
			OFFSET -1.305520 -1.794630 0.839290
			CHANNELS 3 Zrotation Yrotation Xrotation
			JOINT RightLeg
			{
				OFFSET -2.542530 -6.985550 0.000000
				CHANNELS 3 Zrotation Yrotation Xrotation
				JOINT RightFoot
				{
					OFFSET -2.568260 -7.056230 0.000000
					CHANNELS 3 Zrotation Yrotation Xrotation
					JOINT RightToeBase
					{
						OFFSET -0.164730 -0.452590 2.363150
						CHANNELS 3 Zrotation Yrotation Xrotation
						End Site
						{
							OFFSET 0.000000 0.000000 0.000000
						}
					}
				}
			}
		}
	}
	JOINT LowerBack
	{
		OFFSET 0.000000 0.000000 0.000000
		CHANNELS 3 Zrotation Yrotation Xrotation
		JOINT Spine
		{
			OFFSET 0.028270 2.035590 -0.193380
			CHANNELS 3 Zrotation Yrotation Xrotation
			JOINT Spine1
			{
				OFFSET 0.056720 2.048850 -0.042750
				CHANNELS 3 Zrotation Yrotation Xrotation
				JOINT Neck
				{
					OFFSET 0.000000 0.000000 0.000000
					CHANNELS 3 Zrotation Yrotation Xrotation
					JOINT Neck1
					{
						OFFSET -0.054170 1.746240 0.172020
						CHANNELS 3 Zrotation Yrotation Xrotation
						JOINT Head
						{
							OFFSET 0.104070 1.761360 -0.123970
							CHANNELS 3 Zrotation Yrotation Xrotation
							End Site
							{
								OFFSET 0.000000 0.000000 0.000000
							}
						}
					}
				}
				JOINT LeftShoulder
				{
					OFFSET 0.000000 0.000000 0.000000
					CHANNELS 3 Zrotation Yrotation Xrotation
					JOINT LeftArm
					{
						OFFSET 3.362410 1.200890 -0.311210
						CHANNELS 3 Zrotation Yrotation Xrotation
						JOINT LeftForeArm
						{
							OFFSET 4.983000 -0.000000 -0.000000
							CHANNELS 3 Zrotation Yrotation Xrotation
							JOINT LeftHand
							{
								OFFSET 3.483560 -0.000000 -0.000000
								CHANNELS 3 Zrotation Yrotation Xrotation
								JOINT LeftFingerBase
								{
									OFFSET 0.000000 0.000000 0.000000
									CHANNELS 3 Zrotation Yrotation Xrotation
									JOINT LeftHandIndex1
									{
										OFFSET 0.715260 -0.000000 -0.000000
										CHANNELS 3 Zrotation Yrotation Xrotation
										End Site
										{
											OFFSET 0.000000 0.000000 0.000000
										}
									}
								}
								JOINT LThumb
								{
									OFFSET 0.000000 0.000000 0.000000
									CHANNELS 3 Zrotation Yrotation Xrotation
									End Site
									{
										OFFSET 0.000000 0.000000 0.000000
									}
								}
							}
						}
					}
				}
				JOINT RightShoulder
				{
					OFFSET 0.000000 0.000000 0.000000
					CHANNELS 3 Zrotation Yrotation Xrotation
					JOINT RightArm
					{
						OFFSET -3.136600 1.374050 -0.404650
						CHANNELS 3 Zrotation Yrotation Xrotation
						JOINT RightForeArm
						{
							OFFSET -5.241900 -0.000000 -0.000000
							CHANNELS 3 Zrotation Yrotation Xrotation
							JOINT RightHand
							{
								OFFSET -3.444170 -0.000000 -0.000000
								CHANNELS 3 Zrotation Yrotation Xrotation
								JOINT RightFingerBase
								{
									OFFSET 0.000000 0.000000 0.000000
									CHANNELS 3 Zrotation Yrotation Xrotation
									JOINT RightHandIndex1
									{
										OFFSET -0.622530 -0.000000 -0.000000
										CHANNELS 3 Zrotation Yrotation Xrotation
										End Site
										{
											OFFSET 0.000000 0.000000 0.000000
										}
									}
								}
								JOINT RThumb
								{
									OFFSET 0.000000 0.000000 0.000000
									CHANNELS 3 Zrotation Yrotation Xrotation
									End Site
									{
										OFFSET 0.000000 0.000000 0.000000
									}
								}
							}
						}
					}
				}
			}
		}
	}
}
MOTION
Frames: 12
Frame Time: 0.008333
-1.936005 17.359552 -1.296454 143.846791 -81.639630 -132.821295 -10.767602 -0.382262 -0.445377 -4.887335 -6.070536 -31.370176 0.407342 2.402279 46.064517 2.770668 17.719227 13.322734 5.967601 0.000000 -61.036000 8.443854 -0.047284 -0.215257 6.309308 7.900031 -7.617070 2.016876 0.505228 4.776087 -0.775401 -3.127397 -3.896994 -0.586800 0.000000 -52.530200 3.668370 -0.128606 2.685531 -0.087235 -0.318521 -2.900389 -6.290169 -0.449439 -1.829068 9.578288 3.016707 0.798377 -4.245123 -0.379720 2.129565 0.000000 0.000000 0.000000 -2.828476 -6.570649 2.221750 -65.233851 -10.651572 19.027100 -2.975192 -31.290705 0.003722 2.810394 -3.952413 -0.102525 -0.105460 0.108179 0.000000 0.000000 0.000000 0.000000 0.000000 0.000000 0.000000 17.701855 4.015984 1.329464 71.442200 15.140747 2.612727 3.125359 17.665897 0.009637 0.350381 9.903954 0.027275 0.045852 -0.135025 0.000000 0.000000 0.000000 0.000000 0.000000 0.000000 0.000000 
-1.914594 17.358652 -1.321948 140.873232 -81.567849 -130.179067 -10.806457 -0.545366 -0.437593 -5.118413 -6.523060 -32.766013 0.544262 2.510031 48.593047 2.857026 18.033298 15.377323 6.574500 0.000000 -59.824700 8.456243 -0.016986 -0.331868 6.054966 7.637647 -7.393334 1.971602 0.454976 5.093647 -0.795769 -3.159937 -4.115525 -0.566600 -0.000001 -52.447001 3.570323 -0.156636 2.790367 -0.097500 -0.336838 -2.876787 -6.237130 -0.465344 -1.834967 9.521046 2.952763 0.761607 -4.234655 -0.378698 2.119094 0.000000 0.000000 0.000000 -2.878807 -6.537911 2.224942 -65.102566 -10.615043 19.013802 -2.972117 -31.496402 0.003868 2.746908 -3.971572 -0.100720 -0.105352 0.108416 0.000000 0.000000 0.000000 0.000000 0.000000 0.000000 0.000000 17.618671 3.975182 1.332977 71.305634 15.192013 2.726523 3.121010 17.739816 0.009577 0.329944 9.857181 0.025374 0.046005 -0.135000 0.000000 0.000000 0.000000 0.000000 0.000000 0.000000 0.000000 
-1.892041 17.358132 -1.346363 137.870226 -81.482407 -127.496113 -10.834448 -0.727237 -0.435998 -5.366060 -6.976843 -34.199324 0.668239 2.608965 51.084144 2.946375 18.340844 17.405347 7.183300 0.000001 -58.487300 8.471034 0.014527 -0.445102 5.787020 7.409358 -7.174651 1.920529 0.403453 5.401764 -0.825400 -3.247472 -4.321747 -0.553100 0.000000 -52.377801 3.465074 -0.184021 2.903381 -0.110608 -0.354005 -2.853674 -6.188705 -0.480422 -1.848120 9.483946 2.911709 0.734961 -4.227972 -0.377962 2.110967 0.000000 0.000000 0.000000 -2.935132 -6.533081 2.232186 -64.961344 -10.556678 18.974890 -2.967187 -31.715771 0.003992 2.699229 -4.002349 -0.099816 -0.105137 0.108738 0.000000 0.000000 0.000000 0.000000 0.000000 0.000000 0.000000 17.573724 3.952303 1.342850 71.117509 15.232510 2.856954 3.115354 17.825307 0.009499 0.304317 9.820990 0.023074 0.046068 -0.134993 0.000000 0.000000 0.000000 0.000000 0.000000 0.000000 0.000000 
-1.868451 17.358031 -1.369962 134.842981 -81.378159 -124.777031 -10.848504 -0.922541 -0.441182 -5.636964 -7.430258 -35.668869 0.778364 2.702841 53.534646 3.032227 18.617752 19.317492 7.760800 0.000000 -56.869700 8.493080 0.048157 -0.555203 5.498778 7.203918 -6.973859 1.863841 0.349208 5.718111 -0.861895 -3.372638 -4.525923 -0.542799 -0.000000 -52.299900 3.346014 -0.212593 3.023951 -0.127831 -0.371501 -2.829541 -6.145581 -0.496002 -1.861798 9.469614 2.881305 0.711957 -4.225722 -0.377487 2.103326 0.000000 0.000000 0.000000 -2.990588 -6.532513 2.241784 -64.813759 -10.504380 18.926741 -2.962414 -31.926833 0.004108 2.668116 -4.045560 -0.099712 -0.104955 0.109126 0.000000 0.000000 0.000000 0.000000 0.000000 0.000000 0.000000 17.573603 3.933588 1.356553 70.879827 15.284029 3.020777 3.108633 17.905770 0.009398 0.264303 9.798025 0.019472 0.046145 -0.134961 0.000000 0.000000 0.000000 0.000000 0.000000 0.000000 0.000000 
-1.843974 17.358499 -1.392645 131.860204 -81.256831 -122.085198 -10.848220 -1.127849 -0.452283 -5.919804 -7.886991 -37.174431 0.876687 2.794547 55.931903 3.111911 18.860797 21.072754 8.293100 -0.000000 -55.405300 8.520454 0.083815 -0.656946 5.198289 7.048794 -6.785156 1.800769 0.294131 6.026156 -0.909026 -3.560671 -4.715545 -0.539599 0.000000 -52.228800 3.220211 -0.241434 3.146609 -0.147551 -0.389007 -2.806737 -6.106978 -0.511931 -1.881440 9.475759 2.874523 0.700632 -4.226614 -0.377289 2.098534 0.000000 0.000000 0.000000 -3.042531 -6.560173 2.253953 -64.663511 -10.422213 18.849383 -2.956031 -32.141224 0.004200 2.655985 -4.099769 -0.100608 -0.104693 0.109518 0.000000 0.000000 0.000000 0.000000 0.000000 0.000000 0.000000 17.608348 3.931876 1.375423 70.603666 15.334256 3.169977 3.101408 17.970558 0.009285 0.218932 9.788745 0.015571 0.046162 -0.134944 0.000000 0.000000 0.000000 0.000000 0.000000 0.000000 0.000000 
-1.818784 17.359609 -1.414602 128.945404 -81.116773 -119.441352 -10.832837 -1.338401 -0.468625 -6.213909 -8.347167 -38.718404 0.966507 2.887464 58.273718 3.181264 19.054271 22.609564 8.754401 0.000000 -54.117999 8.555276 0.122039 -0.750131 4.884407 6.938711 -6.615486 1.731788 0.237988 6.333316 -0.965252 -3.801355 -4.893384 -0.541600 0.000000 -52.156900 3.085620 -0.271540 3.269412 -0.169938 -0.407452 -2.784828 -6.072454 -0.529073 -1.903757 9.501248 2.885098 0.697955 -4.230121 -0.377314 2.095790 0.000000 0.000000 0.000000 -3.085363 -6.606737 2.267577 -64.515251 -10.320092 18.750464 -2.949096 -32.345873 0.004274 2.660873 -4.163013 -0.102306 -0.104411 0.109877 0.000000 0.000000 0.000000 0.000000 0.000000 0.000000 0.000000 17.674713 3.940460 1.398064 70.297954 15.395330 3.297759 3.094171 18.004509 0.009166 0.166154 9.792464 0.010970 0.046173 -0.134928 0.000000 0.000000 0.000000 0.000000 0.000000 0.000000 0.000000 
-1.792885 17.361313 -1.435878 126.126423 -80.958184 -116.872819 -10.802665 -1.550795 -0.489156 -6.514512 -8.811860 -40.304004 1.052173 2.984147 60.556941 3.237885 19.188351 23.886667 9.126200 -0.000000 -53.104601 8.597989 0.163430 -0.835008 4.558609 6.870206 -6.468525 1.657632 0.181007 6.642396 -1.029357 -4.087332 -5.059460 -0.548100 -0.000000 -52.083600 2.942998 -0.303229 3.390896 -0.194564 -0.427225 -2.763820 -6.041087 -0.547787 -1.927726 9.543501 2.910180 0.702847 -4.235252 -0.377500 2.094869 0.000000 0.000000 0.000000 -3.114532 -6.670622 2.281917 -64.373576 -10.198192 18.632795 -2.942080 -32.533931 0.004335 2.678970 -4.232432 -0.104605 -0.104120 0.110162 0.000000 0.000000 0.000000 0.000000 0.000000 0.000000 0.000000 17.765449 3.956972 1.423747 69.973968 15.472764 3.387327 3.087373 17.996275 0.009041 0.107485 9.807079 0.005868 0.046195 -0.134916 0.000000 0.000000 0.000000 0.000000 0.000000 0.000000 0.000000 
-1.766380 17.363593 -1.456443 123.436052 -80.784311 -114.410251 -10.759315 -1.763646 -0.511750 -6.810167 -9.284619 -41.934122 1.137790 3.085544 62.773826 3.281712 19.262745 24.896289 9.403199 -0.000000 -52.603400 8.646208 0.207928 -0.911439 4.227425 6.845422 -6.343570 1.579263 0.124273 6.947468 -1.101064 -4.418276 -5.208149 -0.559700 0.000000 -52.014800 2.797080 -0.336483 3.508691 -0.220152 -0.448643 -2.744163 -6.011570 -0.568383 -1.953462 9.598123 2.952951 0.715443 -4.240440 -0.377760 2.095911 0.000000 0.000000 0.000000 -3.129367 -6.750070 2.297112 -64.241324 -10.057197 18.503173 -2.935452 -32.699319 0.004385 2.706653 -4.303950 -0.107403 -0.103841 0.110347 0.000000 0.000000 0.000000 0.000000 0.000000 0.000000 0.000000 17.868287 3.986192 1.451760 69.644741 15.562882 3.405772 3.081341 17.941961 0.008919 0.051077 9.826384 0.000966 0.046176 -0.134916 0.000000 0.000000 0.000000 0.000000 0.000000 0.000000 0.000000 
-1.739400 17.366292 -1.476634 120.866706 -80.589650 -112.047085 -10.701585 -1.972257 -0.536456 -7.109982 -9.758743 -43.613689 1.228174 3.193906 64.931260 3.309019 19.252127 25.573523 9.553100 -0.000001 -52.010800 8.705959 0.257039 -0.984627 3.879128 6.825372 -6.257443 1.498615 0.065758 7.276664 -1.172806 -4.747199 -5.355654 -0.570200 0.000000 -51.941300 2.637504 -0.372081 3.625912 -0.248679 -0.471786 -2.724083 -5.983493 -0.590802 -1.975945 9.665050 2.988373 0.727789 -4.245887 -0.378046 2.096734 0.000000 0.000000 0.000000 -3.118300 -6.841586 2.310621 -64.125451 -9.905540 18.360599 -2.930195 -32.832019 0.004438 2.733536 -4.373734 -0.110203 -0.103563 0.110368 0.000000 0.000000 0.000000 0.000000 0.000000 0.000000 0.000000 17.986228 4.002041 1.481743 69.316078 15.696010 3.397118 3.076610 17.823307 0.008799 -0.018378 9.854675 -0.005136 0.046315 -0.134931 0.000000 0.000000 0.000000 0.000000 0.000000 0.000000 0.000000 
-1.712025 17.369369 -1.496171 118.460422 -80.383250 -109.821569 -10.633022 -2.179621 -0.559479 -7.388984 -10.243250 -45.342908 1.324768 3.306823 67.008386 3.324138 19.178848 25.983019 9.603100 -0.000000 -51.933900 8.769135 0.309567 -1.053760 3.530475 6.825696 -6.199087 1.416946 0.008153 7.606201 -1.246629 -5.090495 -5.486112 -0.583000 0.000000 -51.879900 2.477781 -0.408836 3.739369 -0.277110 -0.496341 -2.704899 -5.955190 -0.614784 -1.998211 9.737554 3.033438 0.743312 -4.249312 -0.378248 2.098408 0.000000 0.000000 0.000000 -3.089204 -6.943755 2.324463 -64.024414 -9.743292 18.218439 -2.926542 -32.930598 0.004492 2.756884 -4.436567 -0.112704 -0.103320 0.110240 0.000000 0.000000 0.000000 0.000000 0.000000 0.000000 0.000000 18.100159 4.025346 1.513183 69.001230 15.847018 3.297747 3.072992 17.655632 0.008689 -0.079971 9.879027 -0.010537 0.046414 -0.134983 0.000000 0.000000 0.000000 0.000000 0.000000 0.000000 0.000000 
-1.684144 17.372593 -1.515118 116.214411 -80.164651 -107.734101 -10.553737 -2.385091 -0.579926 -7.644412 -10.735835 -47.123291 1.428971 3.423625 68.999173 3.326942 19.038364 26.128166 9.551700 0.000000 -52.074401 8.836771 0.366290 -1.123162 3.178686 6.822265 -6.175539 1.336219 -0.049236 7.947315 -1.317491 -5.419127 -5.605853 -0.595000 0.000000 -51.829900 2.315129 -0.446521 3.851805 -0.305907 -0.521840 -2.685688 -5.926073 -0.639781 -2.018526 9.813831 3.078261 0.757885 -4.250321 -0.378309 2.099813 0.000000 0.000000 0.000000 -3.039246 -7.053107 2.338070 -63.939422 -9.578921 18.082343 -2.925215 -32.989827 0.004557 2.769286 -4.488367 -0.114405 -0.103123 0.109942 0.000000 0.000000 0.000000 0.000000 0.000000 0.000000 0.000000 18.207254 4.047465 1.545840 68.704648 16.023908 3.121045 3.070390 17.440541 0.008585 -0.136263 9.897723 -0.015541 0.046514 -0.135090 0.000000 0.000000 0.000000 0.000000 0.000000 0.000000 0.000000 
-1.655846 17.375885 -1.533387 114.139313 -79.938088 -105.793274 -10.465094 -2.590068 -0.596199 -7.863801 -11.236546 -48.954916 1.540248 3.542284 70.890094 3.319264 18.838173 26.050874 9.414400 0.000001 -52.383299 8.905640 0.426674 -1.194752 2.829791 6.809164 -6.184804 1.258052 -0.105580 8.294322 -1.383547 -5.724731 -5.711672 -0.606001 -0.000000 -51.802800 2.153691 -0.484224 3.964000 -0.334225 -0.547588 -2.666044 -5.895754 -0.665050 -2.035800 9.891359 3.114955 0.768180 -4.248742 -0.378190 2.100075 0.000000 0.000000 0.000000 -2.970854 -7.168720 2.351274 -63.870404 -9.416766 17.955885 -2.926355 -33.009088 0.004636 2.764562 -4.525244 -0.115208 -0.102952 0.109466 0.000000 0.000000 0.000000 0.000000 0.000000 0.000000 0.000000 18.304572 4.061474 1.579904 68.427447 16.231187 2.884113 3.068786 17.184974 0.008488 -0.189715 9.909642 -0.020244 0.046654 -0.135274 0.000000 0.000000 0.000000 0.000000 0.000000 0.000000 0.000000 
